<?xml version="1.0" encoding="UTF-8" standalone="no"?>
<svg
   viewBox="0 0 19.687552 18.447605"
   version="1.1"
   id="svg260"
   sodipodi:docname="korta-logo-ico.svg"
   xml:space="preserve"
   width="19.687551"
   height="18.447605"
   inkscape:version="1.2 (dc2aedaf03, 2022-05-15)"
   xmlns:inkscape="http://www.inkscape.org/namespaces/inkscape"
   xmlns:sodipodi="http://sodipodi.sourceforge.net/DTD/sodipodi-0.dtd"
   xmlns="http://www.w3.org/2000/svg"
   xmlns:svg="http://www.w3.org/2000/svg"><sodipodi:namedview
     id="namedview262"
     pagecolor="#ffffff"
     bordercolor="#000000"
     borderopacity="0.25"
     inkscape:showpageshadow="2"
     inkscape:pageopacity="0.0"
     inkscape:pagecheckerboard="0"
     inkscape:deskcolor="#d1d1d1"
     showgrid="false"
     inkscape:zoom="10.11396"
     inkscape:cx="32.133803"
     inkscape:cy="22.345352"
     inkscape:window-width="1920"
     inkscape:window-height="1017"
     inkscape:window-x="-8"
     inkscape:window-y="-8"
     inkscape:window-maximized="1"
     inkscape:current-layer="Capa_1-2" /><defs
     id="defs228"><style
       id="style223">.cls-1{fill:none;}.cls-2{fill:#008acb;}.cls-3{clip-path:url(#clip-path);}.cls-4{fill:#fff;}.cls-5,.cls-6{fill:#1d1d1b;}.cls-6{fill-rule:evenodd;}</style><clipPath
       id="clip-path"><path
         class="cls-1"
         d="M 0,19.21 A 19.05,19.05 0 0 1 18.89,0 19.05,19.05 0 0 1 37.78,19.21 19.05,19.05 0 0 1 18.89,38.42 19.05,19.05 0 0 1 0,19.21"
         id="path225" /></clipPath></defs><g
     id="Capa_1-2"
     data-name="Capa 1"
     transform="translate(4.3511002,4.1526761)"><g
       id="g396"
       transform="matrix(0.52109175,0,0,0.48015632,-4.3507471,-4.1526761)"><path
         class="cls-2"
         d="M 0,19.21 A 19.05,19.05 0 0 1 18.89,0 19.05,19.05 0 0 1 37.78,19.21 19.05,19.05 0 0 1 18.89,38.42 19.05,19.05 0 0 1 0,19.21"
         id="path230" /><g
         class="cls-3"
         clip-path="url(#clip-path)"
         id="g246"><rect
           class="cls-4"
           x="5.0999999"
           y="8.1400003"
           width="3.3800001"
           height="22.129999"
           id="rect232" /><rect
           class="cls-4"
           x="17.23"
           y="8.1400003"
           width="3.3800001"
           height="22.129999"
           id="rect234" /><rect
           class="cls-4"
           x="29.35"
           y="8.1400003"
           width="3.3800001"
           height="22.129999"
           id="rect236" /><rect
           class="cls-4"
           x="23.58"
           y="12.86"
           width="2.8"
           height="12.69"
           id="rect238" /><rect
           class="cls-4"
           x="11.45"
           y="12.91"
           width="2.8"
           height="12.69"
           id="rect240" /><rect
           class="cls-4"
           x="35.700001"
           y="12.82"
           width="2.0799999"
           height="12.69"
           id="rect242" /><rect
           class="cls-4"
           y="12.91"
           width="2.1300001"
           height="12.69"
           id="rect244"
           x="0" /></g></g></g></svg>
