<?xml version="1.0" encoding="UTF-8" standalone="no"?>
<svg
   viewBox="0 0 56.49842 37.24816"
   version="1.1"
   id="svg87"
   sodipodi:docname="korta-logo-loading.svg"
   width="56.498421"
   height="37.248158"
   inkscape:version="1.1.2 (b8e25be833, 2022-02-05)"
   xmlns:inkscape="http://www.inkscape.org/namespaces/inkscape"
   xmlns:sodipodi="http://sodipodi.sourceforge.net/DTD/sodipodi-0.dtd"
   xmlns="http://www.w3.org/2000/svg"
   xmlns:svg="http://www.w3.org/2000/svg">
  <sodipodi:namedview
     id="namedview89"
     pagecolor="#ffffff"
     bordercolor="#666666"
     borderopacity="1.0"
     inkscape:pageshadow="2"
     inkscape:pageopacity="0.0"
     inkscape:pagecheckerboard="0"
     showgrid="false"
     inkscape:zoom="4.6217157"
     inkscape:cx="33.212774"
     inkscape:cy="28.993562"
     inkscape:window-width="1920"
     inkscape:window-height="1017"
     inkscape:window-x="-8"
     inkscape:window-y="-8"
     inkscape:window-maximized="1"
     inkscape:current-layer="Capa_2" />
  <defs
     id="defs55">
    <style
       id="style50">.cls-1{fill:none;}.cls-2{fill:#008acb;}.cls-3{clip-path:url(#clip-path);}.cls-4{fill:#fff;}.cls-5,.cls-6{fill:#1d1d1b;}.cls-6{fill-rule:evenodd;}</style>
    <clipPath
       id="clip-path">
      <path
         class="cls-1"
         d="M 0,19.21 A 19.05,19.05 0 0 1 18.89,0 19.05,19.05 0 0 1 37.78,19.21 19.05,19.05 0 0 1 18.89,38.42 19.05,19.05 0 0 1 0,19.21"
         id="path52" />
    </clipPath>
  </defs>
  <g
     id="Capa_2"
     data-name="Capa 2"
     transform="translate(-46.76,28.777192)">
    <path
       class="cls-2"
       d="M 59.481607,-16.304991 A 13.512806,12.36832 0 0 1 72.88092,-28.777192 13.512806,12.36832 0 0 1 86.280233,-16.304991 13.512806,12.36832 0 0 1 72.88092,-3.8327892 13.512806,12.36832 0 0 1 59.481607,-16.304991"
       id="path57"
       style="stroke-width:0.67863" />
    <g
       class="cls-3"
       clip-path="url(#clip-path)"
       id="g73"
       transform="matrix(0.70933364,0,0,0.64925567,59.481607,-28.777192)">
      <rect
         class="cls-4"
         x="5.0999999"
         y="8.1400003"
         width="3.3800001"
         height="22.129999"
         id="rect59" />
      <rect
         class="cls-4"
         x="17.23"
         y="8.1400003"
         width="3.3800001"
         height="22.129999"
         id="rect61" />
      <rect
         class="cls-4"
         x="29.35"
         y="8.1400003"
         width="3.3800001"
         height="22.129999"
         id="rect63" />
      <rect
         class="cls-4"
         x="23.58"
         y="12.86"
         width="2.8"
         height="12.69"
         id="rect65" />
      <rect
         class="cls-4"
         x="11.45"
         y="12.91"
         width="2.8"
         height="12.69"
         id="rect67" />
      <rect
         class="cls-4"
         x="35.700001"
         y="12.82"
         width="2.0799999"
         height="12.69"
         id="rect69" />
      <rect
         class="cls-4"
         y="12.91"
         width="2.1300001"
         height="12.69"
         id="rect71"
         x="0" />
    </g>
    <polyline
       class="cls-5"
       points="46.76 28.05 46.76 8.09 53.12 8.09 53.12 14.69 58.87 8.09 66.31 8.09 59.17 15.45 67.23 28.05 59.59 28.05 54.7 20.05 53.12 21.69 53.12 28.05 46.76 28.05"
       id="polyline75"
       transform="matrix(0.70933364,0,0,0.64925567,13.591559,-10.093437)" />
    <path
       class="cls-6"
       d="m 65.167208,3.3266777 a 4.1283218,3.778668 0 0 0 0.390134,1.889334 1.4186673,1.2985113 0 0 0 1.31936,0.5973152 1.4186673,1.2985113 0 0 0 1.333547,-0.5973152 4.0361084,3.6942648 0 0 0 0.404321,-1.889334 4.0148284,3.6747871 0 0 0 -0.404321,-1.889334 1.4612273,1.3374667 0 0 0 -1.333547,-0.5843301 1.4186673,1.2985113 0 0 0 -1.31936,0.5843301 4.1141351,3.7656829 0 0 0 -0.390134,1.889334 m -4.199255,0 a 5.3838424,4.9278505 0 0 1 1.567627,-3.75269777 6.008056,5.4991955 0 0 1 4.326935,-1.36992943 6.008056,5.4991955 0 0 1 4.326936,1.36992943 5.3838424,4.9278505 0 0 1 1.57472,3.75269777 A 5.4264024,4.9668059 0 0 1 71.189451,7.085868 6.0151493,5.5056881 0 0 1 66.862515,8.46229 6.0151493,5.5056881 0 0 1 62.53558,7.085868 5.4264024,4.9668059 0 0 1 60.967953,3.3266777 Z"
       id="path77"
       style="stroke-width:0.67863" />
    <path
       class="cls-5"
       d="M 74.118999,8.1181845 V -1.451844 h 3.837495 v 1.74649772 a 3.142348,2.8762026 0 0 1 3.255841,-1.99970742 h 0.375947 v 3.8046382 a 6.5329629,5.9796447 0 0 0 -0.858294,-0.058433 c -1.638561,0 -2.454294,0.7206738 -2.454294,2.1490362 v 3.9279968 h -4.156695"
       id="path79"
       style="stroke-width:0.67863" />
    <path
       class="cls-5"
       d="m 88.383698,4.5797411 a 0.85829371,0.78559936 0 0 0 0.312107,0.7011962 2.1280009,1.947767 0 0 0 1.078187,0.1882841 h 0.581654 v 2.7398589 c -1.014347,0.064926 -1.872641,0.090896 -2.581975,0.090896 A 4.3694952,3.9994149 0 0 1 85.02855,7.6961683 2.9011746,2.6554557 0 0 1 84.227003,5.5536246 V 0.74264013 H 82.751589 V -1.451844 h 1.475414 v -2.9606059 h 4.156695 v 2.9606059 h 1.929388 V 0.74264013 H 88.383698 V 4.5797411"
       id="path81"
       style="stroke-width:0.67863" />
    <path
       class="cls-6"
       d="m 98.669036,3.8460822 c -0.758987,0.2142544 -1.532161,0.4285088 -2.305334,0.6492557 -0.567467,0.1817916 -0.844107,0.4609715 -0.844107,0.8310473 0,0.5778375 0.390133,0.86351 1.177493,0.86351 a 1.7662408,1.6166466 0 0 0 2.014508,-1.8568712 4.9227755,4.5058343 0 0 0 0,-0.4869418 M 99.087543,8.1181845 98.832183,7.202734 A 5.5611758,5.0901644 0 0 1 95.023061,8.46229 3.9864551,3.6488169 0 0 1 92.285033,7.6701981 3.1565347,2.8891877 0 0 1 91.320339,5.4172809 2.6812812,2.4541864 0 0 1 92.441087,3.2163042 8.4056037,7.6936797 0 0 1 95.860075,2.3333165 c 1.418667,-0.1558213 2.128001,-0.2467171 2.184747,-0.2726874 a 0.81573369,0.74664402 0 0 0 0.709334,-0.7531365 c 0,-0.53238968 -0.496534,-0.79858451 -1.496694,-0.79858451 -0.8512,0 -1.312267,0.31813528 -1.418667,0.95440581 H 91.7885 q 0.06384,-3.2462783 5.596642,-3.2462783 c 1.837174,0 3.199098,0.2661948 4.078668,0.81156957 a 2.8728013,2.6294855 0 0 1 1.08528,1.11671975 4.5822953,4.1941916 0 0 1 0.25536,1.57119868 v 5.3368816 a 0.98597376,0.90246538 0 0 0 0.45397,0.8115696 v 0.2661948 z"
       id="path83"
       style="stroke-width:0.67863" />
  </g>
</svg>
