<svg xmlns="http://www.w3.org/2000/svg" xmlns:xlink="http://www.w3.org/1999/xlink" viewBox="0 0 126.36 38.42"><defs><style>.cls-1{fill:none;}.cls-2{fill:#008acb;}.cls-3{clip-path:url(#clip-path);}.cls-4{fill:#fff;}.cls-5,.cls-6{fill:#1d1d1b;}.cls-6{fill-rule:evenodd;}</style><clipPath id="clip-path"><path class="cls-1" d="M0,19.21A19.05,19.05,0,0,1,18.89,0,19.05,19.05,0,0,1,37.78,19.21,19.05,19.05,0,0,1,18.89,38.42,19.05,19.05,0,0,1,0,19.21"></path></clipPath></defs><g id="Capa_2" data-name="Capa 2"><g id="Capa_1-2" data-name="Capa 1"><path class="cls-2" d="M0,19.21A19.05,19.05,0,0,1,18.89,0,19.05,19.05,0,0,1,37.78,19.21,19.05,19.05,0,0,1,18.89,38.42,19.05,19.05,0,0,1,0,19.21"></path><g class="cls-3"><rect class="cls-4" x="5.1" y="8.14" width="3.38" height="22.13"></rect><rect class="cls-4" x="17.23" y="8.14" width="3.38" height="22.13"></rect><rect class="cls-4" x="29.35" y="8.14" width="3.38" height="22.13"></rect><rect class="cls-4" x="23.58" y="12.86" width="2.8" height="12.69"></rect><rect class="cls-4" x="11.45" y="12.91" width="2.8" height="12.69"></rect><rect class="cls-4" x="35.7" y="12.82" width="2.08" height="12.69"></rect><rect class="cls-4" y="12.91" width="2.13" height="12.69"></rect></g><polyline class="cls-5" points="46.76 28.05 46.76 8.09 53.12 8.09 53.12 14.69 58.87 8.09 66.31 8.09 59.17 15.45 67.23 28.05 59.59 28.05 54.7 20.05 53.12 21.69 53.12 28.05 46.76 28.05"></polyline><path class="cls-6" d="M72.71,20.67a5.82,5.82,0,0,0,.55,2.91,2,2,0,0,0,1.86.92A2,2,0,0,0,77,23.58a5.69,5.69,0,0,0,.57-2.91A5.66,5.66,0,0,0,77,17.76a2.06,2.06,0,0,0-1.88-.9,2,2,0,0,0-1.86.9,5.8,5.8,0,0,0-.55,2.91m-5.92,0A7.59,7.59,0,0,1,69,14.89a8.47,8.47,0,0,1,6.1-2.11,8.47,8.47,0,0,1,6.1,2.11,7.59,7.59,0,0,1,2.22,5.78,7.65,7.65,0,0,1-2.22,5.79,8.48,8.48,0,0,1-6.1,2.12A8.48,8.48,0,0,1,69,26.46,7.65,7.65,0,0,1,66.79,20.67Z"></path><path class="cls-5" d="M85.33,28.05V13.31h5.41V16a4.43,4.43,0,0,1,4.59-3.08h.53v5.86a9.21,9.21,0,0,0-1.21-.09c-2.31,0-3.46,1.11-3.46,3.31v6.05H85.33"></path><path class="cls-5" d="M105.44,22.6a1.21,1.21,0,0,0,.44,1.08,3,3,0,0,0,1.52.29h.82v4.22c-1.43.1-2.64.14-3.64.14a6.16,6.16,0,0,1-3.87-.93,4.09,4.09,0,0,1-1.13-3.3V16.69H97.5V13.31h2.08V8.75h5.86v4.56h2.72v3.38h-2.72V22.6"></path><path class="cls-6" d="M119.94,21.47c-1.07.33-2.16.66-3.25,1-.8.28-1.19.71-1.19,1.28,0,.89.55,1.33,1.66,1.33A2.49,2.49,0,0,0,120,22.22a6.94,6.94,0,0,0,0-.75m.53,6.58-.36-1.41a7.84,7.84,0,0,1-5.37,1.94,5.62,5.62,0,0,1-3.86-1.22,4.45,4.45,0,0,1-1.36-3.47,3.78,3.78,0,0,1,1.58-3.39,11.85,11.85,0,0,1,4.82-1.36c2-.24,3-.38,3.08-.42a1.15,1.15,0,0,0,1-1.16c0-.82-.7-1.23-2.11-1.23-1.2,0-1.85.49-2,1.47h-5.71q.09-5,7.89-5c2.59,0,4.51.41,5.75,1.25a4.05,4.05,0,0,1,1.53,1.72,6.46,6.46,0,0,1,.36,2.42v8.22a1.39,1.39,0,0,0,.64,1.25v.41Z"></path></g></g></svg>